<?xml version="1.0" encoding="UTF-8" standalone="yes"?>
<svg version="1.2" width="310.000000pt" height="310.000000pt" viewBox="0 0 310.000000 310.000000" preserveAspectRatio="xMidYMid meet" baseProfile="tiny-ps" xmlns="http://www.w3.org/2000/svg">
  <title>bimi-svg-tiny-12-ps</title>
  <g transform="translate(0.000000,310.000000) scale(0.100000,-0.100000)" fill="#000000" stroke="none">
    <path d="M0 1550 l0 -1550 1550 0 1550 0 0 1550 0 1550 -1550 0 -1550 0 0&#xA;-1550z m2167 1044 c51 -39 63 -71 63 -169 0 -98 -12 -130 -63 -169 l-34 -26&#xA;-396 0 -397 0 -40 -40 -40 -40 0 -502 0 -501 40 -39 41 -38 396 0 396 0 34&#xA;-26 c51 -39 63 -71 63 -169 0 -98 -12 -130 -63 -169 l-34 -26 -584 0 c-555 0&#xA;-585 1 -613 19 -15 10 -37 32 -47 47 -18 28 -19 64 -19 908 l0 879 44 43 43&#xA;44 588 0 588 0 34 -26z"/>
  </g>
</svg>