<?xml version="1.0" standalone="no"?>
<!DOCTYPE svg PUBLIC "-//W3C//DTD SVG 20010904//EN"
 "http://www.w3.org/TR/2001/REC-SVG-20010904/DTD/svg10.dtd">
<svg version="1.0" xmlns="http://www.w3.org/2000/svg"
 width="310.000000pt" height="310.000000pt" viewBox="0 0 310.000000 310.000000"
 preserveAspectRatio="xMidYMid meet">
<metadata>
Created by potrace 1.14, written by Peter Selinger 2001-2017
</metadata>
<g transform="translate(0.000000,310.000000) scale(0.100000,-0.100000)"
fill="#000000" stroke="none">
<path d="M0 1550 l0 -1550 1550 0 1550 0 0 1550 0 1550 -1550 0 -1550 0 0
-1550z m2167 1044 c51 -39 63 -71 63 -169 0 -98 -12 -130 -63 -169 l-34 -26
-396 0 -397 0 -40 -40 -40 -40 0 -502 0 -501 40 -39 41 -38 396 0 396 0 34
-26 c51 -39 63 -71 63 -169 0 -98 -12 -130 -63 -169 l-34 -26 -584 0 c-555 0
-585 1 -613 19 -15 10 -37 32 -47 47 -18 28 -19 64 -19 908 l0 879 44 43 43
44 588 0 588 0 34 -26z"/>
</g>
</svg>
