<!DOCTYPE svg PUBLIC "-//W3C//DTD SVG 1.1//EN" "http://www.w3.org/Graphics/SVG/1.1/DTD/svg11.dtd">
<svg width="1000pt" height="164pt" viewBox="0 0 1000 164" version="1.1" xmlns="http://www.w3.org/2000/svg">
<path fill="#212121" d=" M 279.41 31.66 C 284.69 28.15 293.43 32.48 292.80 39.09 C 293.22 46.11 283.54 49.73 278.47 45.48 C 273.85 42.23 274.18 34.15 279.41 31.66 Z" />
<path fill="#212121" d=" M 648.43 31.75 C 653.87 28.03 662.56 32.49 662.21 39.20 C 662.09 45.21 654.79 49.11 649.53 46.52 C 643.39 44.36 642.60 34.77 648.43 31.75 Z" />
<path fill="#212121" d=" M 571.76 35.97 C 574.74 34.58 577.71 33.12 580.85 32.10 C 582.32 36.25 585.06 40.56 589.84 41.18 C 595.19 41.56 598.71 36.70 600.21 32.17 C 603.49 33.02 606.48 34.68 609.58 36.04 C 606.49 43.45 599.34 49.67 591.00 49.46 C 582.45 50.01 574.58 43.84 571.76 35.97 Z" />
<path fill="#212121" d=" M 19.25 46.31 C 28.80 33.83 49.69 31.49 60.85 43.07 C 63.44 46.20 66.81 49.59 66.79 53.92 C 62.82 55.00 59.63 58.15 55.57 58.75 C 56.35 54.80 53.39 51.59 50.44 49.45 C 46.20 46.68 40.49 46.43 35.92 48.54 C 32.45 50.13 30.10 53.38 28.51 56.74 C 24.97 64.98 25.00 74.16 25.61 82.94 C 26.67 89.59 28.60 96.58 33.51 101.47 C 36.57 104.39 41.32 106.58 45.43 104.51 C 50.28 102.87 53.07 98.37 55.84 94.40 C 59.41 96.68 62.92 99.06 66.57 101.24 C 63.45 107.38 58.09 112.47 51.59 114.84 C 41.02 118.99 27.87 116.43 20.16 107.92 C 12.96 99.81 10.65 88.65 10.43 78.09 C 10.23 67.00 12.04 55.15 19.25 46.31 Z" />
<path fill="#212121" d=" M 440.35 50.16 C 440.15 45.95 440.21 41.74 440.26 37.54 C 459.22 37.54 478.19 37.41 497.15 37.60 C 497.24 41.64 497.20 45.67 497.23 49.70 C 489.99 50.63 482.68 49.94 475.41 50.16 C 475.40 71.59 475.41 93.02 475.41 114.44 C 470.55 114.46 465.69 114.53 460.83 114.37 C 460.73 92.96 460.78 71.55 460.80 50.15 C 453.98 50.16 447.17 50.14 440.35 50.16 Z" />
<path fill="#212121" d=" M 765.86 43.49 C 771.07 42.28 776.40 41.71 781.65 40.67 C 781.60 43.17 780.20 45.37 779.91 47.83 C 779.60 50.77 779.50 53.72 779.21 56.66 C 785.02 56.84 790.83 56.72 796.65 56.74 C 796.68 60.61 796.51 64.48 796.51 68.35 C 790.62 68.36 784.72 68.25 778.84 68.43 C 778.36 77.84 776.74 87.23 777.60 96.66 C 777.94 100.18 779.92 104.28 783.91 104.53 C 789.71 105.17 794.50 101.38 798.98 98.29 C 799.86 101.95 800.91 105.57 801.96 109.19 C 796.30 113.61 789.23 116.30 782.01 116.23 C 777.17 116.29 771.93 115.11 768.45 111.52 C 764.73 107.85 763.70 102.39 763.28 97.39 C 762.88 87.69 763.99 78.03 764.52 68.37 C 760.44 68.32 756.36 68.34 752.28 68.35 C 752.31 64.48 752.26 60.61 752.45 56.74 C 756.73 56.75 761.01 56.80 765.29 56.66 C 765.35 52.26 765.58 47.87 765.86 43.49 Z" />
<path fill="#212121" d=" M 147.06 59.02 C 158.95 52.52 175.23 54.80 184.64 64.66 C 181.98 68.01 179.71 71.65 177.13 75.05 L 175.88 75.45 C 176.34 72.21 173.29 70.53 170.93 69.19 C 166.94 67.31 162.22 65.98 157.90 67.53 C 155.76 68.08 153.05 69.66 153.65 72.27 C 154.37 74.84 156.89 76.22 159.18 77.16 C 166.61 80.29 175.14 81.30 181.51 86.59 C 185.92 90.29 186.42 96.71 185.13 101.97 C 182.65 110.08 174.59 115.28 166.45 116.30 C 155.53 117.38 143.88 114.59 135.77 106.88 C 137.44 102.98 139.73 99.38 141.80 95.68 L 143.20 95.23 C 143.29 96.71 143.69 98.18 145.02 99.01 C 151.12 104.38 159.73 105.52 167.53 104.42 C 170.90 103.84 173.56 100.32 172.38 96.91 C 170.32 93.19 165.86 92.14 162.14 90.86 C 155.34 89.04 148.19 86.98 142.91 82.11 C 136.44 75.41 139.20 63.44 147.06 59.02 Z" />
<path fill="#212121" d=" M 207.78 58.72 C 210.55 56.14 214.03 53.92 218.00 54.40 C 221.96 54.12 225.17 56.75 227.22 59.87 C 229.84 58.88 231.19 55.76 234.06 55.04 C 237.87 54.08 242.39 53.84 245.88 55.94 C 249.87 58.93 250.48 64.37 250.72 69.00 C 250.74 84.14 250.77 99.29 250.69 114.44 C 246.32 114.48 241.95 114.48 237.58 114.43 C 237.49 100.75 237.63 87.07 237.51 73.40 C 237.38 70.67 237.63 67.27 235.01 65.57 C 231.39 65.03 230.48 69.32 229.73 71.94 C 229.55 86.10 229.75 100.27 229.63 114.44 C 225.29 114.48 220.96 114.47 216.62 114.44 C 216.63 101.27 216.64 88.10 216.63 74.92 C 216.65 71.53 216.22 67.99 214.03 65.25 C 210.02 65.47 208.39 69.53 208.46 73.02 C 208.36 86.82 208.49 100.63 208.40 114.43 C 204.10 114.48 199.80 114.47 195.50 114.44 C 195.51 95.03 195.49 75.62 195.51 56.21 C 199.55 56.19 203.60 56.21 207.64 56.18 C 207.68 56.81 207.74 58.08 207.78 58.72 Z" />
<path fill="#212121" d=" M 524.71 63.61 C 528.34 58.89 533.93 55.65 539.93 55.43 C 546.38 55.09 552.83 57.51 557.59 61.85 C 555.46 66.43 552.77 70.76 551.18 75.57 C 550.74 75.48 549.87 75.31 549.44 75.22 C 549.56 74.66 549.80 73.56 549.93 73.01 C 546.64 68.55 540.56 66.09 535.27 68.33 C 528.50 70.13 524.45 77.28 524.54 83.97 C 524.54 94.13 524.56 104.29 524.54 114.45 C 519.77 114.47 515.00 114.48 510.24 114.43 C 510.24 95.21 510.12 75.97 510.30 56.75 C 515.06 56.75 519.83 56.76 524.60 56.74 C 524.65 59.03 524.67 61.32 524.71 63.61 Z" />
<path fill="#212121" d=" M 566.11 64.93 C 573.17 58.49 582.56 54.46 592.19 54.76 C 597.97 55.33 604.05 56.44 608.57 60.39 C 613.78 64.57 615.60 71.58 615.61 78.00 C 615.59 90.15 615.66 102.29 615.57 114.44 C 611.09 114.48 606.62 114.45 602.15 114.49 C 602.05 113.04 601.96 111.60 601.88 110.17 C 594.14 115.95 583.45 117.64 574.40 114.20 C 563.79 109.72 562.62 93.34 571.71 86.72 C 580.43 80.12 591.98 80.00 602.43 79.69 C 601.80 75.91 601.20 71.59 598.04 69.01 C 594.04 65.84 588.27 65.99 583.69 67.66 C 579.69 69.00 576.62 71.96 573.20 74.28 C 570.91 71.11 568.41 68.09 566.11 64.93 Z" />
<path fill="#212121" d=" M 812.24 64.95 C 820.38 57.51 831.88 53.11 842.90 55.39 C 848.74 56.17 854.57 58.99 857.99 63.93 C 860.90 68.34 861.84 73.77 861.74 78.98 C 861.69 90.80 861.77 102.62 861.69 114.44 C 857.20 114.48 852.71 114.46 848.23 114.45 C 848.20 112.99 848.18 111.55 848.16 110.10 C 842.88 113.98 836.52 115.98 829.99 116.17 C 826.17 115.64 822.09 115.43 818.77 113.26 C 811.95 109.12 810.05 99.54 813.22 92.53 C 815.40 87.73 820.10 84.64 824.89 82.84 C 832.46 80.20 840.58 79.77 848.54 79.72 C 848.07 75.18 846.77 69.88 842.24 67.74 C 835.68 64.88 827.97 67.29 822.78 71.83 C 821.65 72.60 820.69 73.96 819.18 73.86 C 816.72 71.00 814.56 67.91 812.24 64.95 Z" />
<path fill="#212121" d=" M 90.67 56.99 C 96.96 54.60 104.17 54.88 110.27 57.72 C 118.89 61.45 124.90 69.92 126.55 79.05 C 129.48 92.74 123.36 109.32 109.62 114.57 C 99.64 118.82 87.23 116.04 79.97 108.00 C 71.16 98.20 69.61 82.96 75.19 71.19 C 78.28 64.70 83.87 59.42 90.67 56.99 Z" />
<path fill="#212121" d=" M 336.50 61.86 C 340.94 57.74 346.87 55.14 352.99 55.40 C 359.48 55.34 365.87 59.31 368.33 65.38 C 370.69 70.58 370.63 76.38 370.76 81.98 C 370.72 92.80 370.81 103.62 370.71 114.44 C 365.99 114.48 361.28 114.47 356.57 114.45 C 356.54 102.85 356.64 91.26 356.53 79.66 C 356.35 75.57 355.75 70.42 351.69 68.31 C 345.47 65.10 336.22 69.52 336.40 76.97 C 336.34 89.46 336.41 101.95 336.38 114.44 C 331.51 114.46 326.65 114.52 321.80 114.38 C 321.70 96.58 321.81 78.78 321.74 60.99 C 321.67 59.51 321.98 58.07 322.38 56.65 C 327.01 56.82 331.66 56.74 336.30 56.75 C 336.36 58.45 336.42 60.15 336.50 61.86 Z" />
<path fill="#212121" d=" M 697.61 61.67 C 702.90 56.45 710.84 55.04 718.01 55.46 C 725.56 55.83 732.69 59.11 738.28 64.12 C 736.37 68.05 733.47 71.39 731.07 75.01 C 730.75 75.13 730.11 75.39 729.79 75.51 C 730.12 71.74 726.22 69.95 723.39 68.55 C 718.44 66.38 711.62 65.72 707.69 70.13 C 706.70 72.97 709.01 75.32 711.39 76.42 C 719.03 80.08 727.98 80.89 734.85 86.15 C 739.98 90.11 740.71 97.68 738.45 103.39 C 735.38 111.16 727.19 115.73 719.15 116.43 C 708.52 117.06 696.94 114.46 689.43 106.41 C 691.72 102.95 693.51 99.18 695.68 95.65 L 697.09 95.27 C 696.93 98.21 699.68 99.67 701.75 101.10 C 707.52 104.81 714.72 105.25 721.36 104.42 C 725.58 103.87 728.42 98.20 724.88 95.10 C 719.60 90.71 712.30 90.49 706.20 87.80 C 701.40 85.71 696.02 83.14 694.04 77.91 C 692.22 72.40 693.36 65.79 697.61 61.67 Z" />
<path fill="#212121" d=" M 895.05 62.47 C 902.76 52.73 918.21 53.74 926.81 61.76 C 924.72 66.44 922.04 70.85 920.29 75.68 C 919.86 75.53 919.00 75.24 918.57 75.10 C 918.72 74.39 918.88 73.69 919.05 72.98 C 915.78 68.44 909.62 66.07 904.32 68.40 C 897.63 70.26 893.76 77.32 893.72 83.94 C 893.70 94.11 893.74 104.29 893.72 114.46 C 888.94 114.47 884.18 114.48 879.42 114.44 C 879.38 95.21 879.30 75.98 879.46 56.75 C 884.23 56.75 889.00 56.76 893.78 56.74 C 893.79 58.76 893.80 60.77 893.81 62.79 C 894.12 62.71 894.74 62.55 895.05 62.47 Z" />
<path fill="#212121" d=" M 264.64 56.76 C 273.66 56.69 282.68 56.86 291.70 56.66 C 292.62 60.72 292.06 64.91 292.20 69.03 C 292.30 80.41 292.00 91.80 292.35 103.19 C 296.46 103.19 300.57 103.17 304.68 103.20 C 304.74 106.95 304.75 110.69 304.65 114.44 C 291.06 114.44 277.47 114.56 263.88 114.37 C 263.84 110.68 263.85 106.99 263.84 103.30 C 268.44 103.10 273.05 103.20 277.66 103.20 C 277.87 91.57 277.68 79.94 277.76 68.31 C 273.39 68.31 269.02 68.34 264.65 68.28 C 264.59 64.44 264.60 60.60 264.64 56.76 Z" />
<path fill="#212121" d=" M 634.27 68.39 C 633.52 64.53 633.49 60.51 634.27 56.66 C 643.29 56.87 652.31 56.69 661.33 56.76 C 661.40 72.12 661.34 87.48 661.36 102.84 C 665.49 103.41 669.66 103.15 673.82 103.17 C 674.06 105.43 674.17 107.71 674.20 109.99 C 674.02 111.48 673.86 112.98 673.72 114.48 C 660.24 114.43 646.77 114.50 633.30 114.44 C 633.25 110.69 633.25 106.94 633.28 103.19 C 637.71 103.19 642.14 103.12 646.58 103.28 C 647.52 100.26 647.13 97.07 647.19 93.95 C 647.19 85.43 647.17 76.90 647.20 68.37 C 642.89 68.28 638.57 68.27 634.27 68.39 Z" />
<path fill="#212121" d=" M 936.32 95.01 C 936.30 82.25 936.25 69.50 936.35 56.74 C 940.97 56.76 945.58 56.74 950.21 56.77 C 950.31 69.13 950.12 81.50 950.30 93.87 C 950.33 98.42 951.94 104.10 957.04 105.19 C 964.23 106.10 970.23 99.24 970.40 92.37 C 970.54 80.50 970.36 68.62 970.48 56.75 C 975.17 56.76 979.87 56.76 984.58 56.74 C 984.88 73.48 984.57 90.23 984.73 106.98 C 984.68 109.51 985.28 111.98 985.84 114.44 C 981.11 114.47 976.39 114.50 971.68 114.41 C 971.42 112.61 971.18 110.81 971.01 109.00 C 967.70 112.50 963.70 115.69 958.85 116.60 C 953.41 117.21 947.33 116.81 943.04 113.03 C 937.80 108.70 936.41 101.46 936.32 95.01 Z" />
<path fill="#ffffff" d=" M 98.71 66.86 C 103.18 66.58 107.64 69.21 109.85 73.07 C 112.91 78.33 113.02 84.66 112.45 90.55 C 111.70 95.03 110.04 99.74 106.32 102.60 C 103.46 105.01 99.35 105.19 95.88 104.29 C 90.46 102.31 87.91 96.49 87.07 91.18 C 86.17 84.99 86.52 78.22 89.79 72.73 C 91.63 69.49 95.08 67.43 98.71 66.86 Z" />
<path fill="#ffffff" d=" M 583.46 92.47 C 589.21 89.40 596.05 89.43 602.41 89.57 C 601.82 93.40 601.23 97.52 598.63 100.57 C 594.75 105.45 587.10 106.45 581.88 103.22 C 578.26 100.41 579.75 94.50 583.46 92.47 Z" />
<path fill="#ffffff" d=" M 830.11 92.16 C 835.82 89.50 842.34 89.41 848.54 89.56 C 848.03 93.20 847.47 97.07 845.18 100.08 C 841.38 105.35 833.34 106.61 827.95 103.16 C 824.46 100.16 826.07 93.94 830.11 92.16 Z" />
</svg>
